<?xml version="1.0" encoding="UTF-8" standalone="no"?><!DOCTYPE svg PUBLIC "-//W3C//DTD SVG 1.1//EN" "http://www.w3.org/Graphics/SVG/1.1/DTD/svg11.dtd"><!-- Generated by graphviz version 2.40.1 (20161225.0304)
 --><!-- Title: Iphone Pages: 1 --><svg xmlns="http://www.w3.org/2000/svg" xmlns:xlink="http://www.w3.org/1999/xlink" width="512pt" height="355pt" viewBox="0.00 0.00 511.62 354.80">
<g id="graph0" class="graph" transform="scale(1 1) rotate(0) translate(4 350.8)">
<title>Iphone</title>
<polygon fill="#ffffff" stroke="transparent" points="-4,4 -4,-350.8 507.6166,-350.8 507.6166,4 -4,4"/>
<!-- Browser -->
<g id="node1" class="node">
<title>Browser</title>
<polygon fill="none" stroke="#000000" points="0,-.5 0,-100.5 157.6478,-100.5 157.6478,-.5 0,-.5"/>
<text text-anchor="middle" x="78.8239" y="-83.9" font-family="Times,serif" font-size="14.00" fill="#000000">&lt;&lt;interface&gt;&gt;</text>
<text text-anchor="middle" x="78.8239" y="-67.1" font-family="Times,serif" font-size="14.00" fill="#000000">Browser</text>
<polyline fill="none" stroke="#000000" points="0,-58.9 157.6478,-58.9 "/>
<text text-anchor="start" x="8" y="-42.3" font-family="Times,serif" font-size="14.00" fill="#000000">+ showPage(int) : void</text>
<text text-anchor="start" x="8" y="-25.5" font-family="Times,serif" font-size="14.00" fill="#000000"> + addPage(String) : void</text>
<text text-anchor="start" x="8" y="-8.7" font-family="Times,serif" font-size="14.00" fill="#000000"> + refreshPage(int) : void</text>
</g>
<!-- Dialer -->
<g id="node2" class="node">
<title>Dialer</title>
<polygon fill="none" stroke="#000000" points="175.3096,-.5 175.3096,-100.5 312.3382,-100.5 312.3382,-.5 175.3096,-.5"/>
<text text-anchor="middle" x="243.8239" y="-83.9" font-family="Times,serif" font-size="14.00" fill="#000000">&lt;&lt;interface&gt;&gt;</text>
<text text-anchor="middle" x="243.8239" y="-67.1" font-family="Times,serif" font-size="14.00" fill="#000000">Dialer</text>
<polyline fill="none" stroke="#000000" points="175.3096,-58.9 312.3382,-58.9 "/>
<text text-anchor="start" x="183.3096" y="-42.3" font-family="Times,serif" font-size="14.00" fill="#000000">+ anwser(long) : void</text>
<text text-anchor="start" x="183.3096" y="-25.5" font-family="Times,serif" font-size="14.00" fill="#000000"> + voiceMail() : void</text>
<text text-anchor="start" x="183.3096" y="-8.7" font-family="Times,serif" font-size="14.00" fill="#000000"> + call(long) : void</text>
</g>
<!-- Iphone -->
<g id="node3" class="node">
<title>Iphone</title>
<polygon fill="none" stroke="#000000" points="155.2812,-137.5 155.2812,-346.3 332.3666,-346.3 332.3666,-137.5 155.2812,-137.5"/>
<text text-anchor="middle" x="243.8239" y="-329.7" font-family="Times,serif" font-size="14.00" fill="#000000">Iphone</text>
<polyline fill="none" stroke="#000000" points="155.2812,-321.5 332.3666,-321.5 "/>
<text text-anchor="start" x="163.2812" y="-304.9" font-family="Times,serif" font-size="14.00" fill="#000000">+ Iphone() : </text>
<polyline fill="none" stroke="#000000" points="155.2812,-296.7 332.3666,-296.7 "/>
<text text-anchor="start" x="163.2812" y="-280.1" font-family="Times,serif" font-size="14.00" fill="#000000">+ voiceMail() : void</text>
<text text-anchor="start" x="163.2812" y="-263.3" font-family="Times,serif" font-size="14.00" fill="#000000"> + addPage(String) : void</text>
<text text-anchor="start" x="163.2812" y="-246.5" font-family="Times,serif" font-size="14.00" fill="#000000"> + selectMusic(String) : void</text>
<text text-anchor="start" x="163.2812" y="-229.7" font-family="Times,serif" font-size="14.00" fill="#000000"> + call(long) : void</text>
<text text-anchor="start" x="163.2812" y="-212.9" font-family="Times,serif" font-size="14.00" fill="#000000"> + playMusic() : void</text>
<text text-anchor="start" x="163.2812" y="-196.1" font-family="Times,serif" font-size="14.00" fill="#000000"> + showPage(int) : void</text>
<text text-anchor="start" x="163.2812" y="-179.3" font-family="Times,serif" font-size="14.00" fill="#000000"> + refreshPage(int) : void</text>
<text text-anchor="start" x="163.2812" y="-162.5" font-family="Times,serif" font-size="14.00" fill="#000000"> + anwser(long) : void</text>
<text text-anchor="start" x="163.2812" y="-145.7" font-family="Times,serif" font-size="14.00" fill="#000000"> + stopMusic() : void</text>
</g>
<!-- Iphone&#45;&gt;Browser -->
<g id="edge1" class="edge">
<title>Iphone-&gt;Browser</title>
<path fill="none" stroke="#008200" stroke-dasharray="5,2" d="M166.4787,-137.2464C166.4787,-92.3414 166.4787,-50 166.4787,-50 166.4787,-50 165.6062,-50 165.6062,-50"/>
<polygon fill="#008200" stroke="#008200" points="167.7536,-46.5001 157.7536,-50 167.7535,-53.5001 167.7536,-46.5001"/>
</g>
<!-- Iphone&#45;&gt;Dialer -->
<g id="edge2" class="edge">
<title>Iphone-&gt;Dialer</title>
<path fill="none" stroke="#008200" stroke-dasharray="5,2" d="M243.8239,-137.2398C243.8239,-137.2398 243.8239,-110.5693 243.8239,-110.5693"/>
<polygon fill="#008200" stroke="#008200" points="247.324,-110.5693 243.8239,-100.5693 240.324,-110.5694 247.324,-110.5693"/>
</g>
<!-- MusicPlayer -->
<g id="node4" class="node">
<title>MusicPlayer</title>
<polygon fill="none" stroke="#000000" points="330.0312,-.5 330.0312,-100.5 503.6166,-100.5 503.6166,-.5 330.0312,-.5"/>
<text text-anchor="middle" x="416.8239" y="-83.9" font-family="Times,serif" font-size="14.00" fill="#000000">&lt;&lt;interface&gt;&gt;</text>
<text text-anchor="middle" x="416.8239" y="-67.1" font-family="Times,serif" font-size="14.00" fill="#000000">MusicPlayer</text>
<polyline fill="none" stroke="#000000" points="330.0312,-58.9 503.6166,-58.9 "/>
<text text-anchor="start" x="338.0312" y="-42.3" font-family="Times,serif" font-size="14.00" fill="#000000">+ selectMusic(String) : void</text>
<text text-anchor="start" x="338.0312" y="-25.5" font-family="Times,serif" font-size="14.00" fill="#000000"> + playMusic() : void</text>
<text text-anchor="start" x="338.0312" y="-8.7" font-family="Times,serif" font-size="14.00" fill="#000000"> + stopMusic() : void</text>
</g>
<!-- Iphone&#45;&gt;MusicPlayer -->
<g id="edge3" class="edge">
<title>Iphone-&gt;MusicPlayer</title>
<path fill="none" stroke="#008200" stroke-dasharray="5,2" d="M321.1847,-137.2464C321.1847,-92.3414 321.1847,-50 321.1847,-50 321.1847,-50 322.0673,-50 322.0673,-50"/>
<polygon fill="#008200" stroke="#008200" points="320.0108,-53.5001 330.0108,-50 320.0107,-46.5001 320.0108,-53.5001"/>
</g>
</g>
</svg>